# xmcd
#
# Track frame offsets: 
#        150
#        27450
#        54375
#        84398
#        105316
#        128309
#        152566
#        189416
#        229927
#        258804
#
# Disc length: 3852 seconds
#
# Revision: 0
# Processed by: cddbd v1.5.2PL0 Copyright (c) Steve Scherf et al.
# Submitted via: ExactAudioCopy v1.0b4
#
DISCID=6b0f0a0a
DTITLE=Reverend Raven and His Chain Smoking Altar Boys - Live At The Big
DTITLE=Bull
DYEAR=2015
DGENRE=Blues
TTITLE0=Hot And Heavy
TTITLE1=Walking To Chicago
TTITLE2=You Didn't Even Say Goodbye
TTITLE3=Hawaiian Boogie
TTITLE4=Diving Duck Blues
TTITLE5=Stomping and Shouting
TTITLE6=She's Nineteen Years Old
TTITLE7=Chicken Heads
TTITLE8=My Life
TTITLE9=Looking For Love
EXTD=
EXTT0=
EXTT1=
EXTT2=
EXTT3=
EXTT4=
EXTT5=
EXTT6=
EXTT7=
EXTT8=
EXTT9=
PLAYORDER=
